<?xml version="1.0" encoding="UTF-8"?>
<svg width="1440px" height="2524px" viewBox="0 0 1440 2524" version="1.1" xmlns="http://www.w3.org/2000/svg" xmlns:xlink="http://www.w3.org/1999/xlink">
    <!-- Generator: sketchtool 55 (78076) - https://sketchapp.com -->
    <title>334A21F0-1CDE-418F-91C3-EAEB0E7ABB82</title>
    <desc>Created with sketchtool.</desc>
    <defs>
        <linearGradient x1="33.7251765%" y1="0%" x2="66.2748235%" y2="100%" id="linearGradient-1">
            <stop stop-color="#FF6F61" offset="0%"></stop>
            <stop stop-color="#E55982" offset="100%"></stop>
        </linearGradient>
        <linearGradient x1="11.1476327%" y1="0%" x2="88.8523673%" y2="100%" id="linearGradient-2">
            <stop stop-color="#E55982" offset="0%"></stop>
            <stop stop-color="#FF6F61" offset="100%"></stop>
        </linearGradient>
        <path d="M1530,1688 C1519.62474,1685.73524 1509.74425,1681.52996 1500.98326,1675.18463 C1471.1219,1653.56462 1453.91476,1610.14501 1417.17154,1606.8626 C1415.74719,1606.73789 1414.32784,1606.67803 1412.91349,1606.67803 C1400.44918,1606.67803 1388.26975,1611.29236 1376.13529,1614.6047 C1360.50243,1618.86984 1344.29983,1621.0049 1328.09224,1621.0049 C1312.16951,1621.0049 1296.25178,1618.94467 1280.87381,1614.82419 C1268.35453,1611.46696 1255.9352,1606.61318 1246.14967,1598.13777 C1224.27966,1579.19158 1220.37644,1545.42964 1229.83212,1518.10781 C1239.2928,1490.79097 1259.59353,1468.70205 1280.53896,1448.74818 C1329.57656,1402.0312 1412.2388,1342 1487.38447,1342 C1494.87105,1342 1502.28766,1342.59862 1509.58433,1343.8607 C1516.57613,1345.0729 1523.38302,1347.00842 1530,1349.57748 L1530,1688" id="path-3"></path>
        <filter x="-9.8%" y="-8.7%" width="119.7%" height="117.3%" filterUnits="objectBoundingBox" id="filter-4">
            <feOffset dx="0" dy="0" in="SourceAlpha" result="shadowOffsetOuter1"></feOffset>
            <feGaussianBlur stdDeviation="10" in="shadowOffsetOuter1" result="shadowBlurOuter1"></feGaussianBlur>
            <feColorMatrix values="0 0 0 0 0   0 0 0 0 0   0 0 0 0 0  0 0 0 0.2 0" type="matrix" in="shadowBlurOuter1"></feColorMatrix>
        </filter>
        <path d="M395,1342 C384.62474,1339.73524 374.744253,1335.52996 365.983256,1329.18463 C336.121897,1307.56462 318.914758,1264.14501 282.171543,1260.8626 C280.747193,1260.73789 279.327842,1260.67803 277.913488,1260.67803 C265.449182,1260.67803 253.269746,1265.29236 241.135289,1268.6047 C225.50243,1272.86984 209.299832,1275.0049 193.092236,1275.0049 C177.16951,1275.0049 161.251782,1272.94467 145.873807,1268.82419 C133.354526,1265.46696 120.935199,1260.61318 111.149669,1252.13777 C89.2796601,1233.19158 85.3764432,1199.42964 94.8321237,1172.10781 C104.292802,1144.79097 124.593528,1122.70205 145.53896,1102.74818 C194.576558,1056.0312 277.238796,996 352.384468,996 C359.871048,996 367.28766,996.598616 374.584326,997.860698 C381.576132,999.072895 388.383023,1001.00842 395,1003.57748 L395,1342" id="path-5"></path>
        <filter x="-9.8%" y="-8.7%" width="119.7%" height="117.3%" filterUnits="objectBoundingBox" id="filter-6">
            <feOffset dx="0" dy="0" in="SourceAlpha" result="shadowOffsetOuter1"></feOffset>
            <feGaussianBlur stdDeviation="10" in="shadowOffsetOuter1" result="shadowBlurOuter1"></feGaussianBlur>
            <feColorMatrix values="0 0 0 0 0   0 0 0 0 0   0 0 0 0 0  0 0 0 0.2 0" type="matrix" in="shadowBlurOuter1"></feColorMatrix>
        </filter>
        <linearGradient x1="14.6337936%" y1="0%" x2="85.3662064%" y2="100%" id="linearGradient-7">
            <stop stop-color="#E55982" offset="0%"></stop>
            <stop stop-color="#FF6F61" offset="100%"></stop>
        </linearGradient>
        <path d="M282.619664,470 C261.065856,470 239.861947,464.119975 222.281998,451.370763 C184.817761,424.208746 163.243958,369.679886 117.147201,365.553378 C115.367712,365.393513 113.598221,365.323572 111.828729,365.323572 C104.485838,365.323572 97.2179264,366.597494 90,368.385981 L90,80 L316.080051,80 C374.853167,135.433095 412.722288,228.854047 417.480921,295.732457 C421.184856,347.768427 405.15946,403.071632 366.415591,438.022058 C343.787091,458.42979 312.855977,470 282.619664,470" id="path-8"></path>
        <filter x="-10.1%" y="-6.9%" width="120.1%" height="116.9%" filterUnits="objectBoundingBox" id="filter-9">
            <feOffset dx="0" dy="6" in="SourceAlpha" result="shadowOffsetOuter1"></feOffset>
            <feGaussianBlur stdDeviation="10" in="shadowOffsetOuter1" result="shadowBlurOuter1"></feGaussianBlur>
            <feColorMatrix values="0 0 0 0 0   0 0 0 0 0   0 0 0 0 0  0 0 0 0.2 0" type="matrix" in="shadowBlurOuter1"></feColorMatrix>
        </filter>
        <path d="M1394.61966,2604 C1373.06586,2604 1351.86195,2598.11998 1334.282,2585.37076 C1296.81776,2558.20875 1275.24396,2503.67989 1229.1472,2499.55338 C1227.36771,2499.39351 1225.59822,2499.32357 1223.82873,2499.32357 C1216.48584,2499.32357 1209.21793,2500.59749 1202,2502.38598 L1202,2214 L1428.08005,2214 C1486.85317,2269.4331 1524.72229,2362.85405 1529.48092,2429.73246 C1533.18486,2481.76843 1517.15946,2537.07163 1478.41559,2572.02206 C1455.78709,2592.42979 1424.85598,2604 1394.61966,2604" id="path-10"></path>
        <filter x="-10.1%" y="-6.9%" width="120.1%" height="116.9%" filterUnits="objectBoundingBox" id="filter-11">
            <feOffset dx="0" dy="6" in="SourceAlpha" result="shadowOffsetOuter1"></feOffset>
            <feGaussianBlur stdDeviation="10" in="shadowOffsetOuter1" result="shadowBlurOuter1"></feGaussianBlur>
            <feColorMatrix values="0 0 0 0 0   0 0 0 0 0   0 0 0 0 0  0 0 0 0.2 0" type="matrix" in="shadowBlurOuter1"></feColorMatrix>
        </filter>
        <linearGradient x1="0%" y1="23.0625241%" x2="100%" y2="76.9374759%" id="linearGradient-12">
            <stop stop-color="#E55982" offset="0%"></stop>
            <stop stop-color="#FF6F61" offset="100%"></stop>
        </linearGradient>
        <path d="M1117.69716,0 C1004.19295,0.140823811 890.679742,16.9917412 782.284497,50.6546246 L782.284497,50.6546246 C760.057651,57.5609839 736.717814,66.0613488 722.539913,84.5002793 L722.539913,84.5002793 C713.887973,95.7571955 709.991,109.495008 710,123.559411 L710,123.559411 L710,123.64031 C710.03,142.630551 717.16995,162.202064 729.310866,177.036505 L729.310866,177.036505 C750.457718,202.888161 783.23849,216.530093 815.869263,223.739074 L815.869263,223.739074 C898.10169,241.914334 985.287083,225.339072 1067.07551,245.407963 L1067.07551,245.407963 C1151.08093,266.025169 1221.60444,323.670047 1277.67405,389.46473 L1277.67405,389.46473 C1333.73766,455.256416 1378.04435,530.099777 1429.92899,599.232284 L1429.92899,599.232284 C1448.39686,623.843492 1488.62658,664.805244 1523.96033,665 L1523.96033,665 L1524.47333,665 C1538.38723,664.922097 1551.52114,658.46218 1562.23707,642.114633 L1562.23707,642.114633 C1578.06796,617.952862 1573.03999,584.901214 1578.81795,557.710233 L1578.81795,557.710233 C1586.0599,523.621882 1598.98381,491.043642 1606.84075,457.108099 L1606.84075,457.108099 C1634.74956,336.610857 1595.06284,210.384782 1539.29023,99.9549436 L1539.29023,99.9549436 C1535.33925,92.1287352 1531.17528,84.1676955 1524.73133,78.2141441 L1524.73133,78.2141441 C1517.41138,71.4516049 1507.78744,67.8441183 1498.38551,64.5182794 L1498.38551,64.5182794 C1377.26435,21.6928595 1248.81725,0.140823811 1120.34014,0 L1120.34014,0 L1117.69716,0 Z" id="path-13"></path>
        <filter x="-3.6%" y="-4.1%" width="107.3%" height="109.9%" filterUnits="objectBoundingBox" id="filter-14">
            <feOffset dx="0" dy="6" in="SourceAlpha" result="shadowOffsetOuter1"></feOffset>
            <feGaussianBlur stdDeviation="10" in="shadowOffsetOuter1" result="shadowBlurOuter1"></feGaussianBlur>
            <feColorMatrix values="0 0 0 0 0   0 0 0 0 0   0 0 0 0 0  0 0 0 0.2 0" type="matrix" in="shadowBlurOuter1"></feColorMatrix>
        </filter>
        <path d="M407.697176,2028 C294.192967,2028.14082 180.679757,2044.99174 72.2845122,2078.65462 L72.2845122,2078.65462 C50.057667,2085.56098 26.7178295,2094.06135 12.5399282,2112.50028 L12.5399282,2112.50028 C3.88798848,2123.7572 -0.00898438574,2137.49501 1.55515891e-05,2151.55941 L1.55515891e-05,2151.55941 L1.55515891e-05,2151.64031 C0.0300153427,2170.63055 7.16996562,2190.20206 19.3108811,2205.0365 L19.3108811,2205.0365 C40.4577338,2230.88816 73.2385055,2244.53009 105.869278,2251.73907 L105.869278,2251.73907 C188.101706,2269.91433 275.287099,2253.33907 357.075529,2273.40796 L357.075529,2273.40796 C441.080944,2294.02517 511.604453,2351.67005 567.674062,2417.46473 L567.674062,2417.46473 C623.737672,2483.25642 668.044364,2558.09978 719.929002,2627.23228 L719.929002,2627.23228 C738.396874,2651.84349 778.626593,2692.80524 813.960347,2693 L813.960347,2693 L814.473344,2693 C828.387247,2692.9221 841.521155,2686.46218 852.237081,2670.11463 L852.237081,2670.11463 C868.067971,2645.95286 863.040006,2612.90121 868.817965,2585.71023 L868.817965,2585.71023 C876.059915,2551.62188 888.983825,2519.04364 896.84077,2485.1081 L896.84077,2485.1081 C924.749576,2364.61086 885.062852,2238.38478 829.290241,2127.95494 L829.290241,2127.95494 C825.339268,2120.12874 821.175297,2112.1677 814.731342,2106.21414 L814.731342,2106.21414 C807.411393,2099.4516 797.78746,2095.84412 788.385525,2092.51828 L788.385525,2092.51828 C667.264369,2049.69286 538.817263,2028.14082 410.340158,2028 L410.340158,2028 L407.697176,2028 Z" id="path-15"></path>
        <filter x="-3.6%" y="-4.1%" width="107.3%" height="109.9%" filterUnits="objectBoundingBox" id="filter-16">
            <feOffset dx="0" dy="6" in="SourceAlpha" result="shadowOffsetOuter1"></feOffset>
            <feGaussianBlur stdDeviation="10" in="shadowOffsetOuter1" result="shadowBlurOuter1"></feGaussianBlur>
            <feColorMatrix values="0 0 0 0 0   0 0 0 0 0   0 0 0 0 0  0 0 0 0.2 0" type="matrix" in="shadowBlurOuter1"></feColorMatrix>
        </filter>
    </defs>
    <g id="Page-1" stroke="none" stroke-width="1" fill="none" fill-rule="evenodd">
        <g id="Fulao2_下載頁_1440">
            <g id="bg" transform="translate(-90.000000, -80.000000)">
                <rect fill="url(#linearGradient-1)" x="90" y="80" width="1440" height="2524"></rect>
                <g id="dot-bg" opacity="0.5" transform="translate(160.000000, 80.000000)" fill="#FFFFFF">
                    <g id="dot-1">
                        <g id="Group-2" opacity="0.497930618" transform="translate(17.973397, 0.319240)">
                            <path d="M1254.01305,608.380675 C1259.79271,608.380675 1259.80169,599.402052 1254.01305,599.402052 C1248.23638,599.402052 1248.22441,608.380675 1254.01305,608.380675" id="Fill-1"></path>
                            <path d="M815.881422,751.7579 C821.658092,751.7579 821.670064,742.779278 815.881422,742.779278 C810.10176,742.779278 810.092781,751.7579 815.881422,751.7579" id="Fill-3"></path>
                            <path d="M904.502113,437.120337 C910.281775,437.120337 910.290755,428.141715 904.502113,428.141715 C898.722451,428.141715 898.713471,437.120337 904.502113,437.120337" id="Fill-7"></path>
                            <path d="M1100.66673,338.548532 C1106.44639,338.548532 1106.45537,329.56991 1100.66673,329.56991 C1094.88706,329.56991 1094.87808,338.548532 1100.66673,338.548532" id="Fill-9"></path>
                            <path d="M487.28143,554.61399 C493.058099,554.61399 493.070072,545.635368 487.28143,545.635368 C481.501768,545.635368 481.492788,554.61399 487.28143,554.61399" id="Fill-11"></path>
                            <path d="M845.753986,164.304 C851.530655,164.304 851.542627,155.325378 845.753986,155.325378 C839.974323,155.325378 839.965344,164.304 845.753986,164.304" id="Fill-15"></path>
                            <path d="M676.8343,160.396504 C682.613963,160.396504 682.622942,151.417881 676.8343,151.417881 C671.057631,151.417881 671.045659,160.396504 676.8343,160.396504" id="Fill-21"></path>
                            <path d="M69.061054,334.56771 C74.8407163,334.56771 74.8496956,325.589088 69.061054,325.589088 C63.2843848,325.589088 63.2724124,334.56771 69.061054,334.56771" id="Fill-23"></path>
                            <path d="M372.769289,343.528675 C378.545958,343.528675 378.55793,334.550052 372.769289,334.550052 C366.989627,334.550052 366.980647,343.528675 372.769289,343.528675" id="Fill-25"></path>
                            <path d="M297.09133,618.335273 C302.868,618.335273 302.879972,609.356651 297.09133,609.356651 C291.311668,609.356651 291.302689,618.335273 297.09133,618.335273" id="Fill-27"></path>
                            <path d="M349.865244,43.8264513 C355.644907,43.8264513 355.653886,34.847829 349.865244,34.847829 C344.088575,34.847829 344.076603,43.8264513 349.865244,43.8264513" id="Fill-29"></path>
                            <path d="M514.166587,8.97862233 C519.943257,8.97862233 519.955229,0 514.166587,0 C508.386925,0 508.377946,8.97862233 514.166587,8.97862233" id="Fill-35"></path>
                            <path d="M725.267332,314.652228 C731.044001,314.652228 731.055973,305.673606 725.267332,305.673606 C719.487669,305.673606 719.47869,314.652228 725.267332,314.652228" id="Fill-43"></path>
                            <path d="M712.321607,555.607924 C718.101269,555.607924 718.110248,546.629302 712.321607,546.629302 C706.541944,546.629302 706.532965,555.607924 712.321607,555.607924" id="Fill-45"></path>
                            <path d="M1247.04483,124.476029 C1252.8215,124.476029 1252.83347,115.497406 1247.04483,115.497406 C1241.26517,115.497406 1241.25619,124.476029 1247.04483,124.476029" id="Fill-53"></path>
                            <path d="M996.960847,22.5285606 C1002.74051,22.5285606 1002.74949,13.5499382 996.960847,13.5499382 C991.184178,13.5499382 991.175198,22.5285606 996.960847,22.5285606" id="Fill-55"></path>
                            <path d="M394.67394,838.381853 C400.453602,838.381853 400.462581,829.40323 394.67394,829.40323 C388.89727,829.40323 388.885298,838.381853 394.67394,838.381853" id="Fill-59"></path>
                            <path d="M4.33811462,803.534024 C10.1177769,803.534024 10.1267562,794.555401 4.33811462,794.555401 C-1.4415477,794.555401 -1.45052698,803.534024 4.33811462,803.534024" id="Fill-63"></path>
                        </g>
                        <g id="Group" transform="translate(0.050159, 142.758499)">
                            <path d="M980.179772,670.056029 C985.959435,670.056029 985.968414,661.077406 980.179772,661.077406 C974.40011,661.077406 974.391131,670.056029 980.179772,670.056029" id="Fill-5"></path>
                            <path d="M287.132712,437.06467 C292.912374,437.06467 292.921353,428.086048 287.132712,428.086048 C281.353049,428.086048 281.34407,437.06467 287.132712,437.06467" id="Fill-13"></path>
                            <path d="M560.06836,8.97862233 C565.848023,8.97862233 565.857002,0 560.06836,0 C554.291691,0 554.279719,8.97862233 560.06836,8.97862233" id="Fill-17"></path>
                            <path d="M386.468974,430.973872 C392.248636,430.973872 392.257616,421.995249 386.468974,421.995249 C380.692305,421.995249 380.680333,430.973872 386.468974,430.973872" id="Fill-19"></path>
                            <path d="M226.390885,164.248632 C232.170547,164.248632 232.179527,155.27001 226.390885,155.27001 C220.611223,155.27001 220.602244,164.248632 226.390885,164.248632" id="Fill-31"></path>
                            <path d="M4.33811462,51.7351211 C10.1177769,51.7351211 10.1267562,42.7564988 4.33811462,42.7564988 C-1.4415477,42.7564988 -1.45052698,51.7351211 4.33811462,51.7351211" id="Fill-33"></path>
                            <path d="M1029.96927,57.7091971 C1035.74594,57.7091971 1035.75492,48.7305748 1029.96927,48.7305748 C1024.18961,48.7305748 1024.18063,57.7091971 1029.96927,57.7091971" id="Fill-37"></path>
                            <path d="M640.627455,582.435449 C646.404124,582.435449 646.416096,573.456827 640.627455,573.456827 C634.847792,573.456827 634.838813,582.435449 640.627455,582.435449" id="Fill-39"></path>
                            <path d="M1293.84363,660.098138 C1299.62329,660.098138 1299.63227,651.119515 1293.84363,651.119515 C1288.06397,651.119515 1288.05499,660.098138 1293.84363,660.098138" id="Fill-47"></path>
                            <path d="M1126.55488,504.77276 C1132.33455,504.77276 1132.34353,495.794138 1126.55488,495.794138 C1120.77821,495.794138 1120.76924,504.77276 1126.55488,504.77276" id="Fill-49"></path>
                            <path d="M1235.09551,315.593188 C1240.87217,315.593188 1240.88115,306.614565 1235.09551,306.614565 C1229.31584,306.614565 1229.30686,315.593188 1235.09551,315.593188" id="Fill-51"></path>
                            <path d="M144.738713,643.172537 C150.518376,643.172537 150.527355,634.193914 144.738713,634.193914 C138.962044,634.193914 138.950072,643.172537 144.738713,643.172537" id="Fill-57"></path>
                            <path d="M55.1213226,510.746836 C60.9009849,510.746836 60.9099642,501.768214 55.1213226,501.768214 C49.3416603,501.768214 49.332681,510.746836 55.1213226,510.746836" id="Fill-61"></path>
                        </g>
                    </g>
                    <g id="dot-2" transform="translate(0.000000, 910.000000)">
                        <g id="Group-2" opacity="0.497930618" transform="translate(17.973397, 0.319240)">
                            <path d="M1254.01305,608.380675 C1259.79271,608.380675 1259.80169,599.402052 1254.01305,599.402052 C1248.23638,599.402052 1248.22441,608.380675 1254.01305,608.380675" id="Fill-1"></path>
                            <path d="M815.881422,751.7579 C821.658092,751.7579 821.670064,742.779278 815.881422,742.779278 C810.10176,742.779278 810.092781,751.7579 815.881422,751.7579" id="Fill-3"></path>
                            <path d="M904.502113,437.120337 C910.281775,437.120337 910.290755,428.141715 904.502113,428.141715 C898.722451,428.141715 898.713471,437.120337 904.502113,437.120337" id="Fill-7"></path>
                            <path d="M1100.66673,338.548532 C1106.44639,338.548532 1106.45537,329.56991 1100.66673,329.56991 C1094.88706,329.56991 1094.87808,338.548532 1100.66673,338.548532" id="Fill-9"></path>
                            <path d="M487.28143,554.61399 C493.058099,554.61399 493.070072,545.635368 487.28143,545.635368 C481.501768,545.635368 481.492788,554.61399 487.28143,554.61399" id="Fill-11"></path>
                            <path d="M845.753986,164.304 C851.530655,164.304 851.542627,155.325378 845.753986,155.325378 C839.974323,155.325378 839.965344,164.304 845.753986,164.304" id="Fill-15"></path>
                            <path d="M676.8343,160.396504 C682.613963,160.396504 682.622942,151.417881 676.8343,151.417881 C671.057631,151.417881 671.045659,160.396504 676.8343,160.396504" id="Fill-21"></path>
                            <path d="M69.061054,334.56771 C74.8407163,334.56771 74.8496956,325.589088 69.061054,325.589088 C63.2843848,325.589088 63.2724124,334.56771 69.061054,334.56771" id="Fill-23"></path>
                            <path d="M372.769289,343.528675 C378.545958,343.528675 378.55793,334.550052 372.769289,334.550052 C366.989627,334.550052 366.980647,343.528675 372.769289,343.528675" id="Fill-25"></path>
                            <path d="M297.09133,618.335273 C302.868,618.335273 302.879972,609.356651 297.09133,609.356651 C291.311668,609.356651 291.302689,618.335273 297.09133,618.335273" id="Fill-27"></path>
                            <path d="M349.865244,43.8264513 C355.644907,43.8264513 355.653886,34.847829 349.865244,34.847829 C344.088575,34.847829 344.076603,43.8264513 349.865244,43.8264513" id="Fill-29"></path>
                            <path d="M514.166587,8.97862233 C519.943257,8.97862233 519.955229,0 514.166587,0 C508.386925,0 508.377946,8.97862233 514.166587,8.97862233" id="Fill-35"></path>
                            <path d="M725.267332,314.652228 C731.044001,314.652228 731.055973,305.673606 725.267332,305.673606 C719.487669,305.673606 719.47869,314.652228 725.267332,314.652228" id="Fill-43"></path>
                            <path d="M712.321607,555.607924 C718.101269,555.607924 718.110248,546.629302 712.321607,546.629302 C706.541944,546.629302 706.532965,555.607924 712.321607,555.607924" id="Fill-45"></path>
                            <path d="M1247.04483,124.476029 C1252.8215,124.476029 1252.83347,115.497406 1247.04483,115.497406 C1241.26517,115.497406 1241.25619,124.476029 1247.04483,124.476029" id="Fill-53"></path>
                            <path d="M996.960847,22.5285606 C1002.74051,22.5285606 1002.74949,13.5499382 996.960847,13.5499382 C991.184178,13.5499382 991.175198,22.5285606 996.960847,22.5285606" id="Fill-55"></path>
                            <path d="M394.67394,838.381853 C400.453602,838.381853 400.462581,829.40323 394.67394,829.40323 C388.89727,829.40323 388.885298,838.381853 394.67394,838.381853" id="Fill-59"></path>
                            <path d="M4.33811462,803.534024 C10.1177769,803.534024 10.1267562,794.555401 4.33811462,794.555401 C-1.4415477,794.555401 -1.45052698,803.534024 4.33811462,803.534024" id="Fill-63"></path>
                        </g>
                        <g id="Group" transform="translate(0.050159, 142.758499)">
                            <path d="M980.179772,670.056029 C985.959435,670.056029 985.968414,661.077406 980.179772,661.077406 C974.40011,661.077406 974.391131,670.056029 980.179772,670.056029" id="Fill-5"></path>
                            <path d="M287.132712,437.06467 C292.912374,437.06467 292.921353,428.086048 287.132712,428.086048 C281.353049,428.086048 281.34407,437.06467 287.132712,437.06467" id="Fill-13"></path>
                            <path d="M560.06836,8.97862233 C565.848023,8.97862233 565.857002,0 560.06836,0 C554.291691,0 554.279719,8.97862233 560.06836,8.97862233" id="Fill-17"></path>
                            <path d="M386.468974,430.973872 C392.248636,430.973872 392.257616,421.995249 386.468974,421.995249 C380.692305,421.995249 380.680333,430.973872 386.468974,430.973872" id="Fill-19"></path>
                            <path d="M226.390885,164.248632 C232.170547,164.248632 232.179527,155.27001 226.390885,155.27001 C220.611223,155.27001 220.602244,164.248632 226.390885,164.248632" id="Fill-31"></path>
                            <path d="M4.33811462,51.7351211 C10.1177769,51.7351211 10.1267562,42.7564988 4.33811462,42.7564988 C-1.4415477,42.7564988 -1.45052698,51.7351211 4.33811462,51.7351211" id="Fill-33"></path>
                            <path d="M1029.96927,57.7091971 C1035.74594,57.7091971 1035.75492,48.7305748 1029.96927,48.7305748 C1024.18961,48.7305748 1024.18063,57.7091971 1029.96927,57.7091971" id="Fill-37"></path>
                            <path d="M640.627455,582.435449 C646.404124,582.435449 646.416096,573.456827 640.627455,573.456827 C634.847792,573.456827 634.838813,582.435449 640.627455,582.435449" id="Fill-39"></path>
                            <path d="M1293.84363,660.098138 C1299.62329,660.098138 1299.63227,651.119515 1293.84363,651.119515 C1288.06397,651.119515 1288.05499,660.098138 1293.84363,660.098138" id="Fill-47"></path>
                            <path d="M1126.55488,504.77276 C1132.33455,504.77276 1132.34353,495.794138 1126.55488,495.794138 C1120.77821,495.794138 1120.76924,504.77276 1126.55488,504.77276" id="Fill-49"></path>
                            <path d="M1235.09551,315.593188 C1240.87217,315.593188 1240.88115,306.614565 1235.09551,306.614565 C1229.31584,306.614565 1229.30686,315.593188 1235.09551,315.593188" id="Fill-51"></path>
                            <path d="M144.738713,643.172537 C150.518376,643.172537 150.527355,634.193914 144.738713,634.193914 C138.962044,634.193914 138.950072,643.172537 144.738713,643.172537" id="Fill-57"></path>
                            <path d="M55.1213226,510.746836 C60.9009849,510.746836 60.9099642,501.768214 55.1213226,501.768214 C49.3416603,501.768214 49.332681,510.746836 55.1213226,510.746836" id="Fill-61"></path>
                        </g>
                    </g>
                    <g id="dot-3" transform="translate(0.000000, 1820.000000)">
                        <g id="Group-2" opacity="0.497930618" transform="translate(17.973397, 0.319240)">
                            <path d="M1254.01305,608.380675 C1259.79271,608.380675 1259.80169,599.402052 1254.01305,599.402052 C1248.23638,599.402052 1248.22441,608.380675 1254.01305,608.380675" id="Fill-1"></path>
                            <path d="M904.502113,437.120337 C910.281775,437.120337 910.290755,428.141715 904.502113,428.141715 C898.722451,428.141715 898.713471,437.120337 904.502113,437.120337" id="Fill-7"></path>
                            <path d="M1100.66673,338.548532 C1106.44639,338.548532 1106.45537,329.56991 1100.66673,329.56991 C1094.88706,329.56991 1094.87808,338.548532 1100.66673,338.548532" id="Fill-9"></path>
                            <path d="M487.28143,554.61399 C493.058099,554.61399 493.070072,545.635368 487.28143,545.635368 C481.501768,545.635368 481.492788,554.61399 487.28143,554.61399" id="Fill-11"></path>
                            <path d="M845.753986,164.304 C851.530655,164.304 851.542627,155.325378 845.753986,155.325378 C839.974323,155.325378 839.965344,164.304 845.753986,164.304" id="Fill-15"></path>
                            <path d="M676.8343,160.396504 C682.613963,160.396504 682.622942,151.417881 676.8343,151.417881 C671.057631,151.417881 671.045659,160.396504 676.8343,160.396504" id="Fill-21"></path>
                            <path d="M69.061054,334.56771 C74.8407163,334.56771 74.8496956,325.589088 69.061054,325.589088 C63.2843848,325.589088 63.2724124,334.56771 69.061054,334.56771" id="Fill-23"></path>
                            <path d="M372.769289,343.528675 C378.545958,343.528675 378.55793,334.550052 372.769289,334.550052 C366.989627,334.550052 366.980647,343.528675 372.769289,343.528675" id="Fill-25"></path>
                            <path d="M297.09133,618.335273 C302.868,618.335273 302.879972,609.356651 297.09133,609.356651 C291.311668,609.356651 291.302689,618.335273 297.09133,618.335273" id="Fill-27"></path>
                            <path d="M349.865244,43.8264513 C355.644907,43.8264513 355.653886,34.847829 349.865244,34.847829 C344.088575,34.847829 344.076603,43.8264513 349.865244,43.8264513" id="Fill-29"></path>
                            <path d="M514.166587,8.97862233 C519.943257,8.97862233 519.955229,0 514.166587,0 C508.386925,0 508.377946,8.97862233 514.166587,8.97862233" id="Fill-35"></path>
                            <path d="M725.267332,314.652228 C731.044001,314.652228 731.055973,305.673606 725.267332,305.673606 C719.487669,305.673606 719.47869,314.652228 725.267332,314.652228" id="Fill-43"></path>
                            <path d="M712.321607,555.607924 C718.101269,555.607924 718.110248,546.629302 712.321607,546.629302 C706.541944,546.629302 706.532965,555.607924 712.321607,555.607924" id="Fill-45"></path>
                            <path d="M1247.04483,124.476029 C1252.8215,124.476029 1252.83347,115.497406 1247.04483,115.497406 C1241.26517,115.497406 1241.25619,124.476029 1247.04483,124.476029" id="Fill-53"></path>
                            <path d="M996.960847,22.5285606 C1002.74051,22.5285606 1002.74949,13.5499382 996.960847,13.5499382 C991.184178,13.5499382 991.175198,22.5285606 996.960847,22.5285606" id="Fill-55"></path>
                        </g>
                        <g id="Group" transform="translate(0.050159, 142.758499)">
                            <path d="M287.132712,437.06467 C292.912374,437.06467 292.921353,428.086048 287.132712,428.086048 C281.353049,428.086048 281.34407,437.06467 287.132712,437.06467" id="Fill-13"></path>
                            <path d="M560.06836,8.97862233 C565.848023,8.97862233 565.857002,0 560.06836,0 C554.291691,0 554.279719,8.97862233 560.06836,8.97862233" id="Fill-17"></path>
                            <path d="M386.468974,430.973872 C392.248636,430.973872 392.257616,421.995249 386.468974,421.995249 C380.692305,421.995249 380.680333,430.973872 386.468974,430.973872" id="Fill-19"></path>
                            <path d="M226.390885,164.248632 C232.170547,164.248632 232.179527,155.27001 226.390885,155.27001 C220.611223,155.27001 220.602244,164.248632 226.390885,164.248632" id="Fill-31"></path>
                            <path d="M4.33811462,51.7351211 C10.1177769,51.7351211 10.1267562,42.7564988 4.33811462,42.7564988 C-1.4415477,42.7564988 -1.45052698,51.7351211 4.33811462,51.7351211" id="Fill-33"></path>
                            <path d="M1029.96927,57.7091971 C1035.74594,57.7091971 1035.75492,48.7305748 1029.96927,48.7305748 C1024.18961,48.7305748 1024.18063,57.7091971 1029.96927,57.7091971" id="Fill-37"></path>
                            <path d="M1126.55488,504.77276 C1132.33455,504.77276 1132.34353,495.794138 1126.55488,495.794138 C1120.77821,495.794138 1120.76924,504.77276 1126.55488,504.77276" id="Fill-49"></path>
                            <path d="M1235.09551,315.593188 C1240.87217,315.593188 1240.88115,306.614565 1235.09551,306.614565 C1229.31584,306.614565 1229.30686,315.593188 1235.09551,315.593188" id="Fill-51"></path>
                            <path d="M55.1213226,510.746836 C60.9009849,510.746836 60.9099642,501.768214 55.1213226,501.768214 C49.3416603,501.768214 49.332681,510.746836 55.1213226,510.746836" id="Fill-61"></path>
                        </g>
                    </g>
                </g>
                <g id="spot-bg">
                    <g id="Fill-3">
                        <use fill="black" fill-opacity="1" filter="url(#filter-4)" xlink:href="#path-3"></use>
                        <use fill="url(#linearGradient-2)" fill-rule="evenodd" xlink:href="#path-3"></use>
                    </g>
                    <g id="Fill-3" transform="translate(242.500000, 1169.000000) rotate(180.000000) translate(-242.500000, -1169.000000) ">
                        <use fill="black" fill-opacity="1" filter="url(#filter-6)" xlink:href="#path-5"></use>
                        <use fill="url(#linearGradient-2)" fill-rule="evenodd" xlink:href="#path-5"></use>
                    </g>
                    <g id="Fill-2">
                        <use fill="black" fill-opacity="1" filter="url(#filter-9)" xlink:href="#path-8"></use>
                        <use fill="url(#linearGradient-7)" fill-rule="evenodd" xlink:href="#path-8"></use>
                    </g>
                    <g id="Fill-2" transform="translate(1366.000000, 2409.000000) rotate(180.000000) translate(-1366.000000, -2409.000000) ">
                        <use fill="black" fill-opacity="1" filter="url(#filter-11)" xlink:href="#path-10"></use>
                        <use fill="url(#linearGradient-7)" fill-rule="evenodd" xlink:href="#path-10"></use>
                    </g>
                    <g id="Fill-1">
                        <use fill="black" fill-opacity="1" filter="url(#filter-14)" xlink:href="#path-13"></use>
                        <use fill="url(#linearGradient-12)" fill-rule="evenodd" xlink:href="#path-13"></use>
                    </g>
                    <g id="Fill-1" transform="translate(453.000000, 2360.500000) rotate(180.000000) translate(-453.000000, -2360.500000) ">
                        <use fill="black" fill-opacity="1" filter="url(#filter-16)" xlink:href="#path-15"></use>
                        <use fill="url(#linearGradient-12)" fill-rule="evenodd" xlink:href="#path-15"></use>
                    </g>
                </g>
            </g>
        </g>
    </g>
</svg>